<svg width="89" height="137" viewBox="0 0 89 137" fill="none" xmlns="http://www.w3.org/2000/svg">
<path d="M74.8377 90H45.639C44.7345 90 44 89.265 44 88.3599V14.3602C44 13.9289 44.17 13.5158 44.4735 13.206L57.021 0.485961C57.3306 0.176161 57.7495 0 58.1866 0H87.361C88.2655 0 89 0.735016 89 1.64012V76.1987C89 76.6421 88.8179 77.0674 88.5022 77.3711L75.9729 89.5383C75.6694 89.836 75.2566 90 74.8316 90" fill="#EB644C"/>
<path d="M29.7416 89.6812L0.31351 59.7742C-0.104503 59.3492 -0.104503 58.6569 0.31351 58.2318L29.7416 28.3188C30.1596 27.8937 30.8404 27.8937 31.2584 28.3188L60.6865 58.2318C61.1045 58.6569 61.1045 59.3492 60.6865 59.7742L31.2584 89.6812C30.8404 90.1063 30.1596 90.1063 29.7416 89.6812Z" fill="#EB644C"/>
<path d="M10.2684 130.825C15.4056 130.825 18.0707 126.066 18.0707 120.939C18.0707 115.811 15.3272 111.188 10.2684 111.188H5.92709V130.825H10.2684ZM10.3468 105C19.2223 105 23.9978 112.733 23.9978 120.887C24.1184 129.079 19.3429 137 10.3468 137H0V105H10.3468Z" fill="#293242"/>
<path d="M30.1537 127.298C30.3086 129.963 31.8874 131.18 34.2468 131.18C36.8028 131.18 38.4174 129.287 38.4531 126.399C38.334 121.344 34.2468 120.624 30.7018 121.344V120.394L35.778 110.374H26.0605V105H43.5651V105.95L37.5892 116.959C41.9922 117.819 44 121.969 44 126.348C44 131.945 40.5384 137 34.3242 137C29.1706 137 25.1966 133.392 25 127.298H30.1537Z" fill="#293242"/>
<path d="M60.3529 126.451C60.3529 123.232 58.6887 121.445 55.957 121.445C53.2253 121.445 51.5265 123.232 51.5265 126.451C51.5265 129.671 53.231 131.325 55.957 131.325C58.6829 131.325 60.3529 129.627 60.3529 126.451ZM61.604 105L55.5438 116.755C55.9627 116.489 56.4161 116.351 56.9096 116.351C62.2525 116.13 66 120.018 66 126.451C66 133.604 61.604 137 55.9627 137C50.3214 137 46 133.604 46 126.451C46 124.172 46.6829 121.666 47.7044 119.747L55.3946 105H61.6098H61.604Z" fill="#293242"/>
<path d="M83.5212 126.93C83.5966 126.171 83.6373 125.362 83.6373 124.426V117.536C83.6373 116.638 83.5966 115.791 83.5212 114.982C83.2542 112.162 81.3738 110.866 79.0406 110.866C76.5914 110.866 74.7864 112.162 74.5194 114.982C74.444 115.785 74.4034 116.638 74.4034 117.536V124.426C74.4034 125.368 74.444 126.171 74.5194 126.93C74.7864 129.661 76.5914 131.134 79.0406 131.134C81.4898 131.134 83.2542 129.654 83.5212 126.93ZM89 115.696V126.215C89 133.017 84.5194 137 79.0406 137C73.5618 137 69 133.017 69 126.215V115.696C69 108.938 73.4806 105 79.0406 105C84.6007 105 89 108.938 89 115.696Z" fill="#293242"/>
</svg>
