<svg width="65" height="105" viewBox="0 0 65 105" fill="none" xmlns="http://www.w3.org/2000/svg">
<path d="M55.3706 1.00144V46.5124C55.3706 46.7859 55.2555 47.0426 55.0638 47.2277L47.3132 54.6586C47.1257 54.8395 46.8743 54.9405 46.6144 54.9405H28.5525C27.9943 54.9405 27.5384 54.4903 27.5384 53.939V46.6639L19.6642 54.4356C19.4001 54.6964 18.9697 54.6964 18.7098 54.4356L0.200459 36.174C-0.063717 35.9131 -0.063717 35.4881 0.200459 35.2314L18.7098 16.9656C18.974 16.7047 19.4043 16.7047 19.6642 16.9656L27.5384 24.7373V8.76473C27.5384 8.50385 27.6406 8.25138 27.8324 8.06203L35.5872 0.29875C35.7747 0.105194 36.0389 0 36.3073 0H54.3522C54.9104 0 55.3663 0.450228 55.3663 1.00144H55.3706Z" fill="white"/>
<path d="M18.8332 68.8007C18.3346 67.6015 17.6146 66.6001 16.707 65.8217C15.8037 65.0516 14.7129 64.4668 13.473 64.0965C12.2373 63.722 10.8781 63.5369 9.42937 63.5369H2.16454V82.3707H9.39528C10.8482 82.3707 12.2075 82.1772 13.4431 81.7943C14.6831 81.4071 15.7781 80.8181 16.6772 80.0396C17.5847 79.257 18.3006 78.2766 18.8204 77.1237C19.3317 75.9665 19.5959 74.599 19.5959 73.0506C19.5959 71.5021 19.3402 70 18.8332 68.8007ZM13.3196 76.8544C12.3651 77.7759 10.9633 78.2387 9.17371 78.2387H6.82596V67.6394H9.17371C10.1495 67.6394 10.9974 67.7699 11.6962 68.0265C12.3907 68.279 12.9617 68.6451 13.409 69.1079C13.8564 69.5708 14.2016 70.1388 14.4189 70.7952C14.6447 71.4558 14.7555 72.209 14.7555 73.0295C14.7555 74.6495 14.2697 75.9413 13.311 76.8586H13.3153L13.3196 76.8544Z" fill="white"/>
<path d="M33.2691 76.3494C33.2691 77.3004 33.0646 78.1588 32.6683 78.9077C32.272 79.6483 31.7394 80.2795 31.0832 80.7844C30.4313 81.2893 29.6729 81.6764 28.8207 81.9415C27.9771 82.2024 27.0823 82.337 26.1704 82.337C24.8453 82.337 23.6395 82.1351 22.587 81.7395C21.5303 81.3482 20.6142 80.8012 19.8515 80.128L19.7024 79.9933L22.1439 76.8333L22.3228 76.989C22.881 77.4729 23.4648 77.8432 24.04 78.0998C24.6109 78.3523 25.2543 78.4785 25.9489 78.4785C26.7499 78.4785 27.4231 78.2639 27.9515 77.8348C28.4713 77.4182 28.727 76.8417 28.727 76.0759C28.727 75.4784 28.531 74.9693 28.1219 74.5064C27.7299 74.0646 27.0865 73.8374 26.2088 73.8374C25.8722 73.8374 25.5526 73.8669 25.2586 73.93C24.9646 73.9931 24.743 74.0604 24.5896 74.1193L24.4107 74.1951L23.1793 72.2595L27.4359 67.9592H21.1724V64.0754H32.6683V67.2186L29.2042 71.0813C30.4654 71.3801 31.4539 71.9607 32.1357 72.8191C32.8813 73.7575 33.2563 74.944 33.2563 76.3494V76.341L33.2691 76.3494Z" fill="white"/>
<path d="M48.1268 73.5178C47.8541 72.794 47.4579 72.1629 46.9594 71.6495C46.4523 71.132 45.8345 70.728 45.1059 70.4419C44.3815 70.1558 43.5762 70.0085 42.6942 70.0085C41.9656 70.0085 41.2924 70.1221 40.7129 70.3367C40.3124 70.4924 39.9459 70.6565 39.6178 70.829C39.6903 70.4167 39.8138 70.0295 39.9885 69.6803C40.2186 69.209 40.5041 68.7967 40.845 68.4558C41.1731 68.115 41.5608 67.8541 41.9912 67.6732C42.4172 67.4923 42.8732 67.4039 43.3419 67.4039C43.9469 67.4039 44.4923 67.4965 44.978 67.6774C45.4851 67.8668 45.8473 68.0182 46.0688 68.1234L46.2648 68.2202L47.9649 64.7699L47.7732 64.6731C47.3258 64.4501 46.725 64.206 46.0007 63.9409C45.2593 63.6801 44.3687 63.5454 43.3419 63.5454C41.9912 63.5454 40.7853 63.8021 39.7627 64.3112C38.7401 64.8204 37.8666 65.5315 37.1636 66.4151C36.4605 67.2945 35.9236 68.3549 35.5742 69.5499C35.2206 70.7364 35.0501 72.045 35.0501 73.4168C35.0501 74.9736 35.2334 76.3327 35.5742 77.4394C35.9279 78.5544 36.4179 79.4928 37.04 80.2165C37.6706 80.9528 38.4205 81.4914 39.2812 81.828C40.1291 82.1563 41.058 82.3288 42.0252 82.3288C43.0606 82.3288 43.9853 82.152 44.782 81.8112C45.5831 81.4704 46.2734 81.0033 46.823 80.4269C47.3812 79.8462 47.8115 79.1561 48.1013 78.3777C48.391 77.6077 48.5401 76.7661 48.5401 75.9035C48.5401 75.041 48.4038 74.2331 48.1354 73.5093L48.1268 73.5178ZM43.8787 77.9106C43.4271 78.4282 42.805 78.6975 42.0252 78.6975C41.6716 78.6975 41.3307 78.626 40.9941 78.4871C40.6575 78.3482 40.3635 78.1126 40.1121 77.7802C39.8564 77.452 39.6519 77.0018 39.4985 76.4421C39.3409 75.8825 39.2599 75.1924 39.2599 74.3593C39.5795 74.1026 39.963 73.8754 40.4146 73.6861C40.8748 73.4925 41.4372 73.3915 42.1019 73.3915C42.8092 73.3915 43.3972 73.6145 43.8617 74.0521C44.3304 74.494 44.5605 75.0999 44.5605 75.8741C44.5605 76.703 44.3304 77.3763 43.8745 77.9022V77.9106H43.8787Z" fill="white"/>
<path d="M63.6365 69.0995C63.3553 67.9592 62.9122 66.9704 62.3327 66.1583C61.7447 65.3462 60.9905 64.6982 60.0872 64.2396C59.1839 63.7851 58.1186 63.5537 56.9128 63.5537C55.707 63.5537 54.6716 63.7851 53.781 64.2396C52.8905 64.6982 52.1278 65.342 51.527 66.1583C50.922 66.9662 50.4703 67.9592 50.1763 69.0995C49.8866 70.2314 49.7375 71.4937 49.7375 72.8486C49.7375 74.2035 49.8866 75.5037 50.1763 76.6524C50.4746 77.8138 50.9262 78.8236 51.5185 79.6525C52.1236 80.4857 52.8777 81.1463 53.7597 81.6091C54.646 82.072 55.6985 82.3076 56.8787 82.3076C58.059 82.3076 59.1753 82.072 60.0659 81.6091C60.9564 81.1463 61.7106 80.4857 62.3114 79.6525C62.8994 78.8236 63.3468 77.8138 63.628 76.6524C63.9092 75.4995 64.0541 74.2246 64.0541 72.8486C64.0541 71.4727 63.9092 70.2314 63.628 69.0995H63.6365ZM56.9171 79.0172C56.3461 79.0172 55.8561 78.8573 55.4598 78.5333C55.0593 78.2093 54.7355 77.7675 54.4798 77.212C54.2242 76.6566 54.041 76.0086 53.9259 75.2639C53.8151 74.5191 53.7597 73.7112 53.7597 72.8402C53.7597 71.9692 53.8151 71.2034 53.9259 70.4755C54.041 69.7517 54.2242 69.1164 54.4798 68.582C54.7355 68.0476 55.0636 67.631 55.4598 67.3281C55.8561 67.0251 56.3333 66.8694 56.8872 66.8694C57.4412 66.8694 57.9184 67.0251 58.3146 67.3281C58.7152 67.631 59.039 68.0476 59.2947 68.582C59.5503 69.1164 59.7378 69.7517 59.8614 70.4755C59.9849 71.1992 60.0446 71.9944 60.0446 72.8402C60.0446 73.686 59.9892 74.5191 59.8784 75.2639C59.7633 76.0086 59.5801 76.6566 59.3245 77.212C59.0688 77.7675 58.7407 78.2051 58.3445 78.5333C57.9482 78.8573 57.4752 79.0172 56.9171 79.0172Z" fill="white"/>
<path d="M2.16454 85.3624H9.46345C10.6693 85.3624 11.6919 85.5012 12.5313 85.7789C13.3664 86.0566 14.0482 86.4269 14.5765 86.8898C15.1006 87.3526 15.4798 87.8828 15.7142 88.4887C15.9485 89.0946 16.0636 89.7258 16.0636 90.378C16.0636 90.9923 15.9528 91.5351 15.727 92.0064C15.5011 92.4777 15.2412 92.8816 14.9387 93.2182C14.6362 93.5548 14.3166 93.8199 13.9757 94.0093C13.6349 94.2028 13.3494 94.3249 13.115 94.3838C13.4644 94.4595 13.8692 94.5984 14.3251 94.8003C14.7811 95.0023 15.2157 95.2884 15.6247 95.6671C16.0338 96.0458 16.3789 96.5129 16.6601 97.0809C16.9413 97.649 17.0819 98.318 17.0819 99.0838C17.0819 100.085 16.903 100.931 16.5408 101.621C16.1786 102.311 15.6758 102.879 15.0239 103.321C14.372 103.763 13.5752 104.087 12.6293 104.289C11.6834 104.491 10.6309 104.592 9.46345 104.592H2.16454V85.3582V85.3624ZM9.05441 93.0625C9.38676 93.0625 9.71059 93.0247 10.0344 92.9489C10.354 92.8732 10.6395 92.7512 10.8823 92.5871C11.1252 92.423 11.3255 92.2042 11.4831 91.9222C11.6408 91.6445 11.7175 91.3037 11.7175 90.8998C11.7175 90.4958 11.6408 90.1255 11.4831 89.8478C11.3255 89.5701 11.1209 89.3471 10.8696 89.183C10.6182 89.0189 10.3284 88.9053 10.0088 88.838C9.68928 88.7706 9.36971 88.737 9.05867 88.737H6.45952V93.0625H9.05867H9.05441ZM9.31858 101.251C9.62963 101.251 9.97902 101.226 10.371 101.179C10.7588 101.133 11.1209 101.019 11.4533 100.847C11.7856 100.674 12.0626 100.426 12.2842 100.098C12.51 99.7697 12.6208 99.3194 12.6208 98.743C12.6208 98.2254 12.5143 97.8004 12.3012 97.4722C12.0882 97.144 11.8155 96.8916 11.4831 96.7064C11.1508 96.5255 10.7929 96.3993 10.4009 96.3319C10.0131 96.2646 9.65093 96.231 9.31858 96.231H6.45526V101.247H9.31858V101.251Z" fill="white"/>
<path d="M27.6831 103.325C27.2144 103.864 26.6263 104.276 25.9148 104.567C25.2032 104.857 24.4107 105 23.5329 105C23.0472 105 22.5359 104.933 21.999 104.798C21.4621 104.663 20.9679 104.436 20.512 104.121C20.056 103.805 19.6768 103.376 19.3743 102.837C19.0718 102.299 18.9226 101.625 18.9226 100.818C18.9226 100.01 19.0846 99.3281 19.4041 98.7137C19.7237 98.0994 20.1668 97.5861 20.7335 97.1695C21.296 96.7571 21.9649 96.4458 22.7319 96.2312C23.4988 96.0208 24.334 95.9156 25.2288 95.9156C25.7145 95.9156 26.2088 95.924 26.703 95.945C27.2016 95.9661 27.5254 95.9913 27.6831 96.0334V95.7431C27.6831 95.398 27.6106 95.1035 27.4657 94.8636C27.3209 94.6238 27.1249 94.4218 26.882 94.2577C26.6391 94.0936 26.3622 93.98 26.0511 93.9127C25.7401 93.8454 25.4077 93.8117 25.0583 93.8117C24.1252 93.8117 23.3497 93.9253 22.7361 94.1567C22.1226 94.3882 21.6027 94.6448 21.1724 94.9352L19.451 92.3979C19.745 92.1875 20.0731 91.9771 20.4438 91.7625C20.8145 91.5522 21.2491 91.3586 21.7561 91.1861C22.2632 91.0136 22.8299 90.8747 23.4648 90.7695C24.0954 90.6643 24.824 90.6096 25.6421 90.6096C27.7257 90.6096 29.2638 91.1608 30.2566 92.2675C31.2494 93.3741 31.7437 94.8594 31.7437 96.7235V104.596H27.8024L27.6873 103.325H27.6831ZM27.6831 98.6254C27.5851 98.6085 27.4018 98.5833 27.1291 98.5538C26.8564 98.5244 26.5454 98.5118 26.196 98.5118C25.0285 98.5118 24.2019 98.6759 23.7162 98.9999C23.2304 99.3281 22.9875 99.7867 22.9875 100.384C22.9875 101.499 23.6693 102.055 25.0328 102.055C25.3651 102.055 25.689 102 26.0128 101.895C26.3323 101.79 26.6178 101.642 26.8607 101.449C27.1036 101.255 27.3038 101.015 27.4615 100.729C27.6149 100.439 27.6958 100.106 27.6958 99.7194V98.6254H27.6831Z" fill="white"/>
<path d="M34.8073 91.0724H38.8381L38.9531 92.5409C39.4005 92.0023 39.9885 91.5689 40.7214 91.2449C41.45 90.9167 42.217 90.7568 43.0138 90.7568C44.5903 90.7568 45.843 91.2197 46.7676 92.1412C47.6922 93.0627 48.1524 94.4302 48.1524 96.2353V104.596H43.9469V96.8118C43.9469 96.0628 43.7552 95.4653 43.3759 95.0235C42.9967 94.5817 42.4641 94.3587 41.7866 94.3587C41.3179 94.3587 40.9089 94.4386 40.5595 94.6027C40.2101 94.7668 39.9161 94.9814 39.6817 95.2507C39.4474 95.52 39.2727 95.8314 39.1577 96.189C39.0426 96.5467 38.983 96.9254 38.983 97.3293V104.596H34.8073V91.0724Z" fill="white"/>
<path d="M51.1904 85.3624H55.3959V95.3389L59.5716 91.0723H64.331L59.4267 96.0584L65.0043 104.592H60.1298L56.6273 98.8818L55.4002 100.123V104.592H51.1947V85.3582L51.1904 85.3624Z" fill="white"/>
</svg>
