<svg width="65" height="105" viewBox="0 0 65 105" fill="none" xmlns="http://www.w3.org/2000/svg">
<path d="M55.3707 1.00144V46.5124C55.3707 46.7859 55.2556 47.0426 55.0639 47.2277L47.3133 54.6586C47.1258 54.8395 46.8745 54.9405 46.6145 54.9405H28.5526C27.9944 54.9405 27.5385 54.4903 27.5385 53.939V46.6639L19.6644 54.4356C19.4002 54.6964 18.9698 54.6964 18.7099 54.4356L0.200573 36.174C-0.0636025 35.9131 -0.0636025 35.4881 0.200573 35.2314L18.7099 16.9656C18.9741 16.7047 19.4044 16.7047 19.6644 16.9656L27.5385 24.7373V8.76473C27.5385 8.50385 27.6408 8.25138 27.8325 8.06203L35.5873 0.29875C35.7748 0.105194 36.039 0 36.3074 0H54.3523C54.9105 0 55.3664 0.450228 55.3664 1.00144H55.3707Z" fill="#EB644C"/>
<path d="M18.8332 68.8007C18.3347 67.6015 17.6146 66.6001 16.707 65.8217C15.8037 65.0516 14.7129 64.4668 13.473 64.0965C12.2373 63.722 10.8781 63.5369 9.42938 63.5369H2.16455V82.3707H9.39529C10.8483 82.3707 12.2075 82.1772 13.4431 81.7943C14.6831 81.4071 15.7781 80.8181 16.6772 80.0396C17.5847 79.257 18.3006 78.2766 18.8204 77.1237C19.3317 75.9665 19.5959 74.599 19.5959 73.0506C19.5959 71.5021 19.3402 70 18.8332 68.8007ZM13.3196 76.8544C12.3651 77.7759 10.9633 78.2387 9.17373 78.2387H6.82597V67.6394H9.17373C10.1495 67.6394 10.9974 67.7699 11.6962 68.0265C12.3907 68.279 12.9617 68.6451 13.4091 69.1079C13.8565 69.5708 14.2016 70.1388 14.4189 70.7952C14.6447 71.4558 14.7555 72.209 14.7555 73.0295C14.7555 74.6495 14.2698 75.9413 13.3111 76.8586H13.3153L13.3196 76.8544Z" fill="#263244"/>
<path d="M33.2691 76.3494C33.2691 77.3004 33.0646 78.1588 32.6683 78.9077C32.272 79.6483 31.7394 80.2795 31.0832 80.7844C30.4313 81.2893 29.6729 81.6764 28.8207 81.9415C27.9771 82.2024 27.0823 82.337 26.1704 82.337C24.8453 82.337 23.6395 82.1351 22.587 81.7395C21.5303 81.3482 20.6142 80.8012 19.8515 80.128L19.7024 79.9933L22.1439 76.8333L22.3228 76.989C22.881 77.4729 23.4648 77.8432 24.04 78.0998C24.6109 78.3523 25.2543 78.4785 25.9489 78.4785C26.7499 78.4785 27.4231 78.2639 27.9515 77.8348C28.4713 77.4182 28.727 76.8417 28.727 76.0759C28.727 75.4784 28.531 74.9693 28.1219 74.5064C27.7299 74.0646 27.0865 73.8374 26.2088 73.8374C25.8722 73.8374 25.5526 73.8669 25.2586 73.93C24.9646 73.9931 24.743 74.0604 24.5896 74.1193L24.4107 74.1951L23.1793 72.2595L27.4359 67.9592H21.1724V64.0754H32.6683V67.2186L29.2042 71.0813C30.4654 71.3801 31.4539 71.9607 32.1357 72.8191C32.8813 73.7575 33.2563 74.944 33.2563 76.3494V76.341L33.2691 76.3494Z" fill="#263244"/>
<path d="M48.127 73.5178C47.8543 72.794 47.458 72.1629 46.9595 71.6495C46.4525 71.132 45.8346 70.728 45.106 70.4419C44.3817 70.1558 43.5763 70.0085 42.6943 70.0085C41.9657 70.0085 41.2925 70.1221 40.713 70.3367C40.3125 70.4924 39.9461 70.6565 39.618 70.829C39.6904 70.4167 39.814 70.0295 39.9887 69.6803C40.2188 69.209 40.5042 68.7967 40.8451 68.4558C41.1732 68.115 41.5609 67.8541 41.9913 67.6732C42.4174 67.4923 42.8733 67.4039 43.342 67.4039C43.947 67.4039 44.4924 67.4965 44.9782 67.6774C45.4852 67.8668 45.8474 68.0182 46.069 68.1234L46.265 68.2202L47.9651 64.7699L47.7733 64.6731C47.3259 64.4501 46.7252 64.206 46.0008 63.9409C45.2594 63.6801 44.3689 63.5454 43.342 63.5454C41.9913 63.5454 40.7855 63.8021 39.7628 64.3112C38.7402 64.8204 37.8667 65.5315 37.1637 66.4151C36.4606 67.2945 35.9238 68.3549 35.5744 69.5499C35.2207 70.7364 35.0503 72.045 35.0503 73.4168C35.0503 74.9736 35.2335 76.3327 35.5744 77.4394C35.928 78.5544 36.418 79.4928 37.0401 80.2165C37.6707 80.9528 38.4207 81.4914 39.2814 81.828C40.1293 82.1563 41.0582 82.3288 42.0254 82.3288C43.0608 82.3288 43.9854 82.152 44.7822 81.8112C45.5832 81.4704 46.2735 81.0033 46.8232 80.4269C47.3813 79.8462 47.8117 79.1561 48.1014 78.3777C48.3912 77.6077 48.5403 76.7661 48.5403 75.9035C48.5403 75.041 48.4039 74.2331 48.1355 73.5093L48.127 73.5178ZM43.8789 77.9106C43.4272 78.4282 42.8051 78.6975 42.0254 78.6975C41.6717 78.6975 41.3309 78.626 40.9942 78.4871C40.6576 78.3482 40.3636 78.1126 40.1122 77.7802C39.8566 77.452 39.6521 77.0018 39.4987 76.4421C39.341 75.8825 39.2601 75.1924 39.2601 74.3593C39.5796 74.1026 39.9631 73.8754 40.4148 73.6861C40.8749 73.4925 41.4374 73.3915 42.1021 73.3915C42.8094 73.3915 43.3974 73.6145 43.8618 74.0521C44.3305 74.494 44.5606 75.0999 44.5606 75.8741C44.5606 76.703 44.3305 77.3763 43.8746 77.9022V77.9106H43.8789Z" fill="#263244"/>
<path d="M63.6366 69.0995C63.3554 67.9592 62.9122 66.9704 62.3328 66.1583C61.7448 65.3462 60.9906 64.6982 60.0873 64.2396C59.184 63.7851 58.1187 63.5537 56.9129 63.5537C55.7071 63.5537 54.6717 63.7851 53.7811 64.2396C52.8906 64.6982 52.1279 65.342 51.5271 66.1583C50.9221 66.9662 50.4704 67.9592 50.1764 69.0995C49.8867 70.2314 49.7375 71.4937 49.7375 72.8486C49.7375 74.2035 49.8867 75.5037 50.1764 76.6524C50.4747 77.8138 50.9263 78.8236 51.5186 79.6525C52.1237 80.4857 52.8778 81.1463 53.7598 81.6091C54.6461 82.072 55.6985 82.3076 56.8788 82.3076C58.0591 82.3076 59.1754 82.072 60.066 81.6091C60.9565 81.1463 61.7107 80.4857 62.3115 79.6525C62.8995 78.8236 63.3469 77.8138 63.6281 76.6524C63.9093 75.4995 64.0542 74.2246 64.0542 72.8486C64.0542 71.4727 63.9093 70.2314 63.6281 69.0995H63.6366ZM56.9172 79.0172C56.3462 79.0172 55.8562 78.8573 55.4599 78.5333C55.0594 78.2093 54.7356 77.7675 54.4799 77.212C54.2243 76.6566 54.0411 76.0086 53.926 75.2639C53.8152 74.5191 53.7598 73.7112 53.7598 72.8402C53.7598 71.9692 53.8152 71.2034 53.926 70.4755C54.0411 69.7517 54.2243 69.1164 54.4799 68.582C54.7356 68.0476 55.0637 67.631 55.4599 67.3281C55.8562 67.0251 56.3334 66.8694 56.8873 66.8694C57.4412 66.8694 57.9185 67.0251 58.3147 67.3281C58.7153 67.631 59.0391 68.0476 59.2947 68.582C59.5504 69.1164 59.7379 69.7517 59.8614 70.4755C59.985 71.1992 60.0447 71.9944 60.0447 72.8402C60.0447 73.686 59.9893 74.5191 59.8785 75.2639C59.7634 76.0086 59.5802 76.6566 59.3246 77.212C59.0689 77.7675 58.7408 78.2051 58.3446 78.5333C57.9483 78.8573 57.4753 79.0172 56.9172 79.0172Z" fill="#263244"/>
<path d="M2.16455 85.3624H9.46347C10.6693 85.3624 11.6919 85.5012 12.5313 85.7789C13.3665 86.0566 14.0482 86.4269 14.5765 86.8898C15.1006 87.3526 15.4799 87.8828 15.7142 88.4887C15.9486 89.0946 16.0636 89.7258 16.0636 90.378C16.0636 90.9923 15.9528 91.5351 15.727 92.0064C15.5012 92.4777 15.2412 92.8816 14.9387 93.2182C14.6362 93.5548 14.3166 93.8199 13.9758 94.0093C13.6349 94.2028 13.3494 94.3249 13.1151 94.3838C13.4645 94.4595 13.8692 94.5984 14.3252 94.8003C14.7811 95.0023 15.2157 95.2884 15.6247 95.6671C16.0338 96.0458 16.3789 96.5129 16.6601 97.0809C16.9413 97.649 17.082 98.318 17.082 99.0838C17.082 100.085 16.903 100.931 16.5408 101.621C16.1786 102.311 15.6759 102.879 15.0239 103.321C14.372 103.763 13.5752 104.087 12.6293 104.289C11.6834 104.491 10.631 104.592 9.46347 104.592H2.16455V85.3582V85.3624ZM9.05442 93.0625C9.38677 93.0625 9.7106 93.0247 10.0344 92.9489C10.354 92.8732 10.6395 92.7512 10.8823 92.5871C11.1252 92.423 11.3255 92.2042 11.4831 91.9222C11.6408 91.6445 11.7175 91.3037 11.7175 90.8998C11.7175 90.4958 11.6408 90.1255 11.4831 89.8478C11.3255 89.5701 11.121 89.3471 10.8696 89.183C10.6182 89.0189 10.3284 88.9053 10.0089 88.838C9.6893 88.7706 9.36973 88.737 9.05868 88.737H6.45954V93.0625H9.05868H9.05442ZM9.3186 101.251C9.62964 101.251 9.97904 101.226 10.371 101.179C10.7588 101.133 11.121 101.019 11.4533 100.847C11.7857 100.674 12.0626 100.426 12.2842 100.098C12.51 99.7697 12.6208 99.3194 12.6208 98.743C12.6208 98.2254 12.5143 97.8004 12.3012 97.4722C12.0882 97.144 11.8155 96.8916 11.4831 96.7064C11.1508 96.5255 10.7929 96.3993 10.4009 96.3319C10.0131 96.2646 9.65095 96.231 9.3186 96.231H6.45528V101.247H9.3186V101.251Z" fill="#263244"/>
<path d="M27.6833 103.325C27.2146 103.864 26.6266 104.276 25.915 104.567C25.2034 104.857 24.4109 105 23.5331 105C23.0474 105 22.5361 104.933 21.9992 104.798C21.4623 104.663 20.9681 104.436 20.5122 104.121C20.0563 103.805 19.677 103.376 19.3745 102.837C19.072 102.299 18.9229 101.625 18.9229 100.818C18.9229 100.01 19.0848 99.3281 19.4043 98.7137C19.7239 98.0994 20.167 97.5861 20.7337 97.1695C21.2962 96.7571 21.9651 96.4458 22.7321 96.2312C23.4991 96.0208 24.3342 95.9156 25.229 95.9156C25.7147 95.9156 26.209 95.924 26.7033 95.945C27.2018 95.9661 27.5256 95.9913 27.6833 96.0334V95.7431C27.6833 95.398 27.6108 95.1035 27.466 94.8636C27.3211 94.6238 27.1251 94.4218 26.8822 94.2577C26.6393 94.0936 26.3624 93.98 26.0513 93.9127C25.7403 93.8454 25.4079 93.8117 25.0585 93.8117C24.1254 93.8117 23.3499 93.9253 22.7364 94.1567C22.1228 94.3882 21.603 94.6448 21.1726 94.9352L19.4512 92.3979C19.7452 92.1875 20.0733 91.9771 20.444 91.7625C20.8147 91.5522 21.2493 91.3586 21.7563 91.1861C22.2634 91.0136 22.8301 90.8747 23.465 90.7695C24.0956 90.6643 24.8242 90.6096 25.6423 90.6096C27.7259 90.6096 29.2641 91.1608 30.2568 92.2675C31.2496 93.3741 31.7439 94.8594 31.7439 96.7235V104.596H27.8026L27.6875 103.325H27.6833ZM27.6833 98.6254C27.5853 98.6085 27.402 98.5833 27.1293 98.5538C26.8566 98.5244 26.5456 98.5118 26.1962 98.5118C25.0287 98.5118 24.2021 98.6759 23.7164 98.9999C23.2306 99.3281 22.9877 99.7867 22.9877 100.384C22.9877 101.499 23.6695 102.055 25.033 102.055C25.3653 102.055 25.6892 102 26.013 101.895C26.3326 101.79 26.618 101.642 26.8609 101.449C27.1038 101.255 27.304 101.015 27.4617 100.729C27.6151 100.439 27.696 100.106 27.696 99.7194V98.6254H27.6833Z" fill="#263244"/>
<path d="M34.8074 91.0724H38.8382L38.9532 92.5409C39.4006 92.0023 39.9886 91.5689 40.7215 91.2449C41.4501 90.9167 42.2171 90.7568 43.0139 90.7568C44.5904 90.7568 45.8431 91.2197 46.7677 92.1412C47.6923 93.0627 48.1525 94.4302 48.1525 96.2353V104.596H43.947V96.8118C43.947 96.0628 43.7553 95.4653 43.376 95.0235C42.9968 94.5817 42.4642 94.3587 41.7867 94.3587C41.318 94.3587 40.909 94.4386 40.5596 94.6027C40.2102 94.7668 39.9162 94.9814 39.6818 95.2507C39.4475 95.52 39.2728 95.8314 39.1577 96.189C39.0427 96.5467 38.9831 96.9254 38.9831 97.3293V104.596H34.8074V91.0724Z" fill="#263244"/>
<path d="M51.1904 85.3624H55.3959V95.3389L59.5716 91.0723H64.331L59.4267 96.0584L65.0043 104.592H60.1298L56.6273 98.8818L55.4002 100.123V104.592H51.1947V85.3582L51.1904 85.3624Z" fill="#263244"/>
</svg>
