<svg width="143" height="50" viewBox="0 0 143 50" fill="none" xmlns="http://www.w3.org/2000/svg">
<path d="M16.5607 39.047C24.8459 39.047 29.1441 31.8516 29.1441 24.0989C29.1441 16.3462 24.7195 9.35603 16.5607 9.35603H9.5591V39.047H16.5607ZM16.6871 0C31.0014 0 38.7032 11.6926 38.7032 24.0206C38.8977 36.4074 31.1959 48.3835 16.6871 48.3835H0V0H16.6871Z" fill="#293242"/>
<path d="M49.0228 34.4634C49.2683 38.5817 51.77 40.4635 55.5083 40.4635C59.5583 40.4635 62.1166 37.5373 62.1732 33.0742C61.9844 25.2614 55.5083 24.148 49.8913 25.2613V23.7934L57.9345 8.30551H42.5373V0H70.273V1.468L60.8044 18.483C67.7808 19.813 70.9622 26.2269 70.9622 32.9954C70.9622 41.6458 65.4774 49.4586 55.6311 49.4586C47.4652 49.4586 41.1685 43.8822 40.8569 34.4634H49.0228Z" fill="#293242"/>
<path d="M97.0326 33.1546C97.0326 28.1784 94.259 25.4172 89.7065 25.4172C85.154 25.4172 82.323 28.1784 82.323 33.1546C82.323 38.1307 85.1635 40.687 89.7065 40.687C94.2494 40.687 97.0326 38.0624 97.0326 33.1546ZM99.1175 0L89.0179 18.1677C89.716 17.7579 90.4716 17.5432 91.2941 17.5432C100.198 17.2017 106.444 23.2121 106.444 33.1546C106.444 44.2093 99.1175 49.4586 89.716 49.4586C80.3145 49.4586 73.1128 44.2093 73.1128 33.1546C73.1128 29.6322 74.2509 25.7587 75.9533 22.7925L88.7692 0H99.1271H99.1175Z" fill="#293242"/>
<path d="M133.869 33.8941C133.995 32.7217 134.063 31.471 134.063 30.025V19.375C134.063 17.9876 133.995 16.6784 133.869 15.4277C133.424 11.0701 130.29 9.06709 126.402 9.06709C122.32 9.06709 119.312 11.0701 118.867 15.4277C118.742 16.6686 118.674 17.9876 118.674 19.375V30.025C118.674 31.4808 118.742 32.7217 118.867 33.8941C119.312 38.115 122.32 40.3915 126.402 40.3915C130.484 40.3915 133.424 38.1052 133.869 33.8941ZM143 16.5318V32.79C143 43.3032 135.533 49.4586 126.402 49.4586C117.271 49.4586 109.669 43.3032 109.669 32.79V16.5318C109.669 6.08707 117.136 0 126.402 0C135.668 0 143 6.08707 143 16.5318Z" fill="#293242"/>
</svg>
